<svg id="Capa_1" enable-background="new 0 0 512 512" height="512" viewBox="0 0 512 512" width="512" xmlns="http://www.w3.org/2000/svg"><g><path d="m484.629 225.058c-20.379-70.018-43.361-106.196-43.732-106.845-1.31-1.599-33.786-40.463-112.059-69.209l-10.343 28.16c37.237 13.676 63.655 30.36 78.184 41.14-43.376-12.953-94.977-20.886-140.679-20.886s-97.303 7.933-140.679 20.886c14.528-10.779 40.946-27.464 78.183-41.14l-10.343-28.16c-78.271 28.746-110.747 67.61-112.057 69.209-.371.649-23.354 36.827-43.732 106.845-19.64 67.476-27.101 162.665-27.372 166.482 1.75 2.736 42 71.456 151.693 71.456l27.804-40.262c-31.15-8.271-60.853-21.609-88.043-39.708l16.623-24.973c43.865 29.197 95.016 44.631 147.923 44.631s104.058-15.434 147.923-44.631l16.623 24.973c-27.189 18.099-56.893 31.437-88.043 39.708l27.804 40.262c109.693 0 149.943-68.72 151.693-71.456-.271-3.817-7.732-99.006-27.371-166.482zm-297.987 78.482h-30v-50h30zm168.716 0h-30v-50h30z"/></g></svg>